<?xml version="1.0" encoding="utf-8" standalone="no"?>
<!-- Generator: Adobe Illustrator 16.0.0, SVG Export Plug-In . SVG Version: 6.00 Build 0)  -->

<svg
   xmlns:dc="http://purl.org/dc/elements/1.1/"
   xmlns:cc="http://creativecommons.org/ns#"
   xmlns:rdf="http://www.w3.org/1999/02/22-rdf-syntax-ns#"
   xmlns:svg="http://www.w3.org/2000/svg"
   xmlns="http://www.w3.org/2000/svg"
   xmlns:xlink="http://www.w3.org/1999/xlink"
   xmlns:sodipodi="http://sodipodi.sourceforge.net/DTD/sodipodi-0.dtd"
   xmlns:inkscape="http://www.inkscape.org/namespaces/inkscape"
   version="1.1"
   id="Layer_1"
   x="0px"
   y="0px"
   width="550"
   height="180"
   viewBox="0 0 550.00001 180"
   enable-background="new 0 0 659.055 202.069"
   xml:space="preserve"
   inkscape:version="0.48.1 "
   sodipodi:docname="Visa_Inc._logo.svg"><metadata
   id="metadata3066"><rdf:RDF><cc:Work
       rdf:about=""><dc:format>image/svg+xml</dc:format><dc:type
         rdf:resource="http://purl.org/dc/dcmitype/StillImage" /></cc:Work></rdf:RDF></metadata><defs
   id="defs3064"><linearGradient
   id="linearGradient3029"><stop
     id="stop3031"
     offset="0"
     style="stop-color:#191e5f;stop-opacity:1;" /><stop
     style="stop-color:#142787;stop-opacity:0.81847638"
     offset="1"
     id="stop3033" /></linearGradient><linearGradient
   id="linearGradient3091"><stop
     style="stop-color:#191e5f;stop-opacity:1;"
     offset="0"
     id="stop3093" /><stop
     id="stop3015"
     offset="1"
     style="stop-color:#122a96;stop-opacity:0.70714283;" /></linearGradient>







	<linearGradient
   inkscape:collect="always"
   xlink:href="#linearGradient3029"
   id="linearGradient3881"
   x1="209.71254"
   y1="107.41815"
   x2="512.76855"
   y2="104.01826"
   gradientUnits="userSpaceOnUse" /><linearGradient
   inkscape:collect="always"
   xlink:href="#linearGradient3091"
   id="linearGradient3027"
   gradientUnits="userSpaceOnUse"
   x1="131.60771"
   y1="108.48824"
   x2="708.97455"
   y2="107.51339" /><linearGradient
   inkscape:collect="always"
   xlink:href="#linearGradient3091"
   id="linearGradient3821"
   gradientUnits="userSpaceOnUse"
   x1="131.60771"
   y1="108.48824"
   x2="708.97455"
   y2="107.51339" /><linearGradient
   inkscape:collect="always"
   xlink:href="#linearGradient3091"
   id="linearGradient3823"
   gradientUnits="userSpaceOnUse"
   x1="131.60771"
   y1="108.48824"
   x2="708.97455"
   y2="107.51339" /><linearGradient
   inkscape:collect="always"
   xlink:href="#linearGradient3091"
   id="linearGradient3825"
   gradientUnits="userSpaceOnUse"
   x1="131.60771"
   y1="108.48824"
   x2="708.97455"
   y2="107.51339" /><linearGradient
   inkscape:collect="always"
   xlink:href="#linearGradient3091"
   id="linearGradient3827"
   gradientUnits="userSpaceOnUse"
   x1="131.60771"
   y1="108.48824"
   x2="708.97455"
   y2="107.51339" /><linearGradient
   inkscape:collect="always"
   xlink:href="#linearGradient3091"
   id="linearGradient3829"
   gradientUnits="userSpaceOnUse"
   x1="131.60771"
   y1="108.48824"
   x2="708.97455"
   y2="107.51339" /><linearGradient
   inkscape:collect="always"
   xlink:href="#linearGradient3091"
   id="linearGradient3831"
   gradientUnits="userSpaceOnUse"
   x1="131.60771"
   y1="108.48824"
   x2="708.97455"
   y2="107.51339" /><linearGradient
   inkscape:collect="always"
   xlink:href="#linearGradient3029"
   id="linearGradient3833"
   gradientUnits="userSpaceOnUse"
   x1="209.71254"
   y1="107.41815"
   x2="512.76855"
   y2="104.01826" /><linearGradient
   inkscape:collect="always"
   xlink:href="#linearGradient3091"
   id="linearGradient3843"
   gradientUnits="userSpaceOnUse"
   x1="131.60771"
   y1="108.48824"
   x2="708.97455"
   y2="107.51339" /><linearGradient
   inkscape:collect="always"
   xlink:href="#linearGradient3091"
   id="linearGradient3845"
   gradientUnits="userSpaceOnUse"
   x1="131.60771"
   y1="108.48824"
   x2="708.97455"
   y2="107.51339" /><linearGradient
   inkscape:collect="always"
   xlink:href="#linearGradient3091"
   id="linearGradient3847"
   gradientUnits="userSpaceOnUse"
   x1="131.60771"
   y1="108.48824"
   x2="708.97455"
   y2="107.51339" /><linearGradient
   inkscape:collect="always"
   xlink:href="#linearGradient3091"
   id="linearGradient3849"
   gradientUnits="userSpaceOnUse"
   x1="131.60771"
   y1="108.48824"
   x2="708.97455"
   y2="107.51339" /><linearGradient
   inkscape:collect="always"
   xlink:href="#linearGradient3091"
   id="linearGradient3851"
   gradientUnits="userSpaceOnUse"
   x1="131.60771"
   y1="108.48824"
   x2="708.97455"
   y2="107.51339" /><linearGradient
   inkscape:collect="always"
   xlink:href="#linearGradient3091"
   id="linearGradient3853"
   gradientUnits="userSpaceOnUse"
   x1="131.60771"
   y1="108.48824"
   x2="708.97455"
   y2="107.51339" /><linearGradient
   inkscape:collect="always"
   xlink:href="#linearGradient3029"
   id="linearGradient3855"
   gradientUnits="userSpaceOnUse"
   x1="209.71254"
   y1="107.41815"
   x2="512.76855"
   y2="104.01826" /><linearGradient
   inkscape:collect="always"
   xlink:href="#linearGradient3091"
   id="linearGradient3876"
   gradientUnits="userSpaceOnUse"
   x1="131.60771"
   y1="108.48824"
   x2="708.97455"
   y2="107.51339" /><linearGradient
   inkscape:collect="always"
   xlink:href="#linearGradient3091"
   id="linearGradient3878"
   gradientUnits="userSpaceOnUse"
   x1="131.60771"
   y1="108.48824"
   x2="708.97455"
   y2="107.51339" /><linearGradient
   inkscape:collect="always"
   xlink:href="#linearGradient3091"
   id="linearGradient3880"
   gradientUnits="userSpaceOnUse"
   x1="131.60771"
   y1="108.48824"
   x2="708.97455"
   y2="107.51339" /><linearGradient
   inkscape:collect="always"
   xlink:href="#linearGradient3091"
   id="linearGradient3882"
   gradientUnits="userSpaceOnUse"
   x1="131.60771"
   y1="108.48824"
   x2="708.97455"
   y2="107.51339" /><linearGradient
   inkscape:collect="always"
   xlink:href="#linearGradient3029"
   id="linearGradient3916"
   x1="29.633602"
   y1="54.413494"
   x2="555.59338"
   y2="49.535637"
   gradientUnits="userSpaceOnUse" /></defs><sodipodi:namedview
   pagecolor="#ffffff"
   bordercolor="#666666"
   borderopacity="1"
   objecttolerance="10"
   gridtolerance="10"
   guidetolerance="10"
   inkscape:pageopacity="0"
   inkscape:pageshadow="2"
   inkscape:window-width="1366"
   inkscape:window-height="706"
   id="namedview3062"
   showgrid="false"
   inkscape:zoom="1.3007839"
   inkscape:cx="368.77671"
   inkscape:cy="142.8087"
   inkscape:window-x="-8"
   inkscape:window-y="-8"
   inkscape:window-maximized="1"
   inkscape:current-layer="Layer_1" />

<g
   id="g3900"
   style="fill:url(#linearGradient3916);fill-opacity:1"><g
     id="g3891"
     style="fill:url(#linearGradient3916);fill-opacity:1"><polygon
       points="265.539,3.402 318.898,3.402 285.514,199.164 232.178,199.164 "
       id="polygon3052"
       style="fill:url(#linearGradient3916);fill-opacity:1"
       transform="matrix(0.8050999,0,0,0.8050999,7.8771877,8.0365706)" /><path
       d="m 393.76628,15.875566 c -8.51151,-3.193026 -21.84719,-6.6195312 -38.50229,-6.6195312 -42.44809,0 -72.34869,21.3770122 -72.60391,52.0126742 -0.23911,22.646655 21.34642,35.279478 37.64164,42.819231 16.72192,7.72494 22.34313,12.65215 22.26262,19.55025 -0.10547,10.56452 -13.35339,15.3911 -25.7004,15.3911 -17.19451,0 -26.32918,-2.38874 -40.43775,-8.27322 l -5.53587,-2.50466 -6.02939,35.28189 c 10.03315,4.39907 28.58829,8.21122 47.85353,8.40846 45.15725,0 74.47255,-21.13145 74.80586,-53.84669 0.16182,-17.92957 -11.28429,-31.573597 -36.06768,-42.821649 -15.01592,-7.290984 -24.21177,-12.156203 -24.11435,-19.538969 0,-6.551097 7.78371,-13.556272 24.60144,-13.556272 14.04819,-0.218182 24.22384,2.845223 32.15328,6.038249 l 3.84918,1.818721 5.82409,-34.159584"
       id="path3054"
       inkscape:connector-curvature="0"
       style="fill:url(#linearGradient3916);fill-opacity:1" /><path
       d="m 503.92568,12.145538 h -33.19507 c -10.28274,0 -17.97869,2.806578 -22.49449,13.069992 l -63.80095,144.43734 h 45.11056 c 0,0 7.37551,-19.42063 9.04368,-23.68443 4.92962,0 48.75283,0.0676 55.01731,0.0676 1.28574,5.51735 5.22671,23.6168 5.22671,23.6168 h 39.8621 L 503.92568,12.145538 M 450.95252,113.73144 c 3.55291,-9.08073 17.11562,-44.058293 17.11562,-44.058293 -0.25361,0.419456 3.52634,-9.125003 5.69609,-15.042487 l 2.90319,13.588477 c 0,0 8.2257,37.621513 9.9454,45.510683 l -35.6603,0.002 0,0 z"
       id="path3056"
       inkscape:connector-curvature="0"
       style="fill:url(#linearGradient3916);fill-opacity:1" /><g
       id="g3079"
       style="fill:url(#linearGradient3916);fill-opacity:1"
       transform="matrix(0.8050999,0,0,0.8050999,8.0912245,9.2560348)"><path
         style="fill:url(#linearGradient3916);fill-opacity:1"
         inkscape:connector-curvature="0"
         id="path3058"
         d="m 187.425,3.545 -52.24,133.495 -5.566,-27.129 C 119.894,78.638 89.594,44.755 55.72,27.792 l 47.767,171.203 56.455,-0.064 84.004,-195.386 h -56.521" /><path
         style="fill:url(#linearGradient3916);fill-opacity:1"
         inkscape:connector-curvature="0"
         id="path3060"
         d="M 86.722,3.424 H 0.681 L 0,7.497 C 66.939,23.701 111.232,62.86 129.618,109.911 L 110.909,19.951 C 107.679,7.555 98.311,3.856 86.722,3.424" /></g><path
       style="fill:url(#linearGradient3916);fill-opacity:1;stroke:none"
       d="m 54.643254,37.619442 c -0.889261,-3.300314 -1.812145,-5.282785 -5.212688,-7.120226 l 12.659387,5.700195"
       id="path3041"
       inkscape:connector-curvature="0"
       sodipodi:nodetypes="ccc" /></g></g></svg>