<?xml version="1.0" encoding="utf-8" standalone="no"?>
<!-- Created with Inkscape (http://www.inkscape.org/) -->

<svg
   xmlns:dc="http://purl.org/dc/elements/1.1/"
   xmlns:cc="http://creativecommons.org/ns#"
   xmlns:rdf="http://www.w3.org/1999/02/22-rdf-syntax-ns#"
   xmlns:svg="http://www.w3.org/2000/svg"
   xmlns="http://www.w3.org/2000/svg"
   xmlns:sodipodi="http://sodipodi.sourceforge.net/DTD/sodipodi-0.dtd"
   xmlns:inkscape="http://www.inkscape.org/namespaces/inkscape"
   width="1000"
   height="625.375"
   id="svg29302"
   version="1.1"
   inkscape:version="0.48.2 r9819"
   sodipodi:docname="New document 16">
  <defs
     id="defs29304" />
  <sodipodi:namedview
     id="base"
     pagecolor="#ffffff"
     bordercolor="#666666"
     borderopacity="1.0"
     inkscape:pageopacity="0.0"
     inkscape:pageshadow="2"
     inkscape:zoom="0.12374369"
     inkscape:cx="1027.9244"
     inkscape:cy="276.4739"
     inkscape:document-units="px"
     inkscape:current-layer="layer1"
     showgrid="false"
     fit-margin-left="0.5"
     fit-margin-bottom="0.5"
     fit-margin-top="0.5"
     fit-margin-right="0.5"
     inkscape:window-width="1055"
     inkscape:window-height="1039"
     inkscape:window-x="855"
     inkscape:window-y="-21"
     inkscape:window-maximized="0">
    <inkscape:grid
       type="xygrid"
       id="grid29360"
       empspacing="5"
       visible="true"
       enabled="true"
       snapvisiblegridlinesonly="true" />
  </sodipodi:namedview>
  <metadata
     id="metadata29307">
    <rdf:RDF>
      <cc:Work
         rdf:about="">
        <dc:format>image/svg+xml</dc:format>
        <dc:type
           rdf:resource="http://purl.org/dc/dcmitype/StillImage" />
        <dc:title></dc:title>
      </cc:Work>
    </rdf:RDF>
  </metadata>
  <g
     inkscape:label="Layer 1"
     inkscape:groupmode="layer"
     id="layer1"
     transform="translate(160.5,-617.48718)">
    <path
       style="fill:#135191;fill-opacity:1;fill-rule:evenodd;stroke:none"
       d="m -160,617.98718 0,624.37502 999,0 0,-624.37502 z"
       id="path29366"
       inkscape:connector-curvature="0" />
    <path
       style="fill:#ffffff;fill-opacity:1;fill-rule:evenodd;stroke:none"
       d="m -149.1775,629.64218 0,601.06502 976.5225,0 0,-601.06502 z"
       id="path29364"
       inkscape:connector-curvature="0" />
    <path
       style="fill:#135191;fill-opacity:1;fill-rule:evenodd;stroke:none"
       d="m -120.04,658.77968 916.5825,0 0,546.12002 -916.5825,0 z"
       id="path29362"
       inkscape:connector-curvature="0" />
    <path
       d="m -44.684511,1021.6557 91.704055,0 0,27.5584 -57.077285,0 -0.38091,25.6243 56.696566,0 0,26.3498 -57.077119,0 0,25.6245 56.696562,0 0,27.5583 -91.703843,0 1.142275,-132.7153"
       style="fill:#ffffff;fill-opacity:1;fill-rule:nonzero;stroke:none"
       id="path19349"
       inkscape:connector-curvature="0" />
    <path
       d="m 70.944091,1010.5355 33.485319,0 -0.76156,143.8355 -33.485047,0 0.761505,-143.8355"
       style="fill:#ffffff;fill-opacity:1;fill-rule:nonzero;stroke:none"
       id="path19351"
       inkscape:connector-curvature="0" />
    <path
       d="m 193.60056,1093.936 c 0,-9.9114 -4.56605,-18.8558 -15.60094,-18.8558 -10.65434,0 -18.64522,9.4279 -20.92835,18.8558 l 36.52929,0 z m 24.73354,49.5565 c -11.41549,9.6697 -28.53847,14.5045 -44.13965,14.5045 -35.00727,0 -50.98901,-25.1409 -50.98901,-49.7985 0,-29.2504 22.07003,-53.908 52.13048,-53.908 36.90989,0 48.32535,26.108 48.32535,59.2263 l -66.97056,0 c 0,7.494 4.94682,20.3062 23.21147,20.3062 11.79604,0 18.26466,-3.626 27.39698,-9.6696 l 11.03494,19.3391"
       style="fill:#ffffff;fill-opacity:1;fill-rule:nonzero;stroke:none"
       id="path19353"
       inkscape:connector-curvature="0" />
    <path
       d="m 324.99682,1147.8441 c -9.51288,5.8016 -24.35294,10.1529 -35.76841,10.1529 -30.44121,0 -52.51102,-17.8889 -52.51102,-49.5565 0,-32.6352 21.68947,-54.15 54.79417,-54.15 11.41545,0 25.49438,3.6262 32.72414,8.461 l -10.65435,21.7566 c -4.94681,-1.934 -10.27399,-3.6262 -15.60116,-3.6262 -16.74264,0 -27.77753,9.9115 -27.77753,25.8664 0,13.7791 10.65434,24.6574 24.73349,24.6574 6.46863,0 12.55691,-2.9009 17.88407,-5.5602 l 12.1766,21.9986"
       style="fill:#ffffff;fill-opacity:1;fill-rule:nonzero;stroke:none"
       id="path19355"
       inkscape:connector-curvature="0" />
    <path
       d="m 336.88827,1057.675 14.45948,0 0.76155,-32.635 31.96325,0 -0.76151,32.635 27.39719,0 -0.3809,24.174 -27.39697,0 c 0,13.5374 -1.14227,27.8 -1.14227,36.0191 0,8.4609 2.28313,12.3289 9.89343,12.3289 4.56626,0 8.37121,-2.1758 12.17635,-4.5932 l 7.22997,22.7234 c -9.89343,5.802 -21.68945,9.6698 -33.10491,9.6698 -27.01646,0 -28.15792,-17.1635 -28.15792,-39.4036 0,-11.8451 0.76155,-23.9322 0.76155,-36.7444 l -14.45954,0 0.76155,-24.174"
       style="fill:#ffffff;fill-opacity:1;fill-rule:nonzero;stroke:none"
       id="path19357"
       inkscape:connector-curvature="0" />
    <path
       d="m 427.82395,1057.675 33.48525,0 0,13.7792 0.38092,0 c 4.94661,-8.2192 11.41523,-16.4384 24.35294,-16.4384 3.80493,0 7.61009,0.4829 11.03489,1.2083 l -4.56626,32.8768 c -3.04403,-0.968 -6.84919,-1.6913 -11.79602,-1.6913 -11.03491,0 -19.78667,9.1859 -19.78667,11.1197 l -0.38089,55.8421 -33.48527,0 0.7615,-96.696"
       style="fill:#ffffff;fill-opacity:1;fill-rule:nonzero;stroke:none"
       id="path19359"
       inkscape:connector-curvature="0" />
    <path
       d="m 556.76785,1132.6144 c 15.98173,0 20.92836,-13.7792 20.92836,-26.5915 0,-12.5704 -4.94663,-26.3497 -20.92836,-26.3497 -15.98151,0 -20.54778,13.7793 -20.54778,26.3497 0,12.8123 4.56627,26.5915 20.54778,26.5915 z m 0,-78.3239 c 35.7684,0 54.03309,22.7237 54.03309,51.7324 0,29.2505 -18.26469,51.9741 -54.03309,51.9741 -35.76839,0 -54.03303,-22.7236 -54.03303,-51.9741 0,-29.0087 18.26464,-51.7324 54.03303,-51.7324"
       style="fill:#ffffff;fill-opacity:1;fill-rule:nonzero;stroke:none"
       id="path19361"
       inkscape:connector-curvature="0" />
    <path
       d="m 629.20642,1057.675 33.48526,0 0,10.6365 c 7.61032,-7.4938 19.02554,-14.021 31.20214,-14.021 20.54776,0 31.58266,11.362 31.58266,37.7115 0,19.8227 -0.3809,41.0957 -0.3809,62.369 l -33.48525,0 c 0.3809,-18.614 0.3809,-37.228 0.3809,-57.2924 0,-7.9773 -1.90176,-14.0211 -12.17657,-14.0211 -5.32717,0 -12.93747,4.5932 -17.12298,8.7029 l -0.76149,62.6106 -33.48531,0 0.76154,-96.696"
       style="fill:#ffffff;fill-opacity:1;fill-rule:nonzero;stroke:none"
       id="path19363"
       inkscape:connector-curvature="0" />
    <path
       d="m 229.09529,860.5209 41.87776,-139.1828 38.00017,0 -42.26555,139.1828 -37.61238,0"
       style="fill:#ffffff;fill-opacity:1;fill-rule:nonzero;stroke:none"
       id="path19365"
       inkscape:connector-curvature="0" />
    <path
       d="m 212.03394,721.3381 -33.7348,59.12187 c -8.91857,15.27323 -13.95934,23.15621 -16.28592,33.00985 l -0.38815,0 c 0.38815,-12.56356 -1.16402,-27.59031 -1.55203,-36.21232 l -3.48979,-55.9194 -63.592028,0 -0.388145,3.69524 c 16.285703,0 25.591833,8.12926 28.306233,24.88037 l 12.40811,110.60719 39.16364,0 79.10234,-139.1828 -39.55117,0"
       style="fill:#ffffff;fill-opacity:1;fill-rule:nonzero;stroke:none"
       id="path19367"
       inkscape:connector-curvature="0" />
    <path
       d="m 500.91278,778.4893 c -0.38815,-10.3464 -0.776,-24.38782 0,-32.76337 l -0.776,0 c -2.32643,6.89746 -12.02037,27.59029 -16.28575,37.93646 l -14.34691,30.54628 33.34702,0 -1.93797,-35.71937 z m 4.26538,82.0316 -1.16402,-20.69261 -46.91857,0 -9.69394,20.69261 -40.71436,0 74.06156,-138.93649 50.02054,0 12.79593,138.93649 -38.38776,0"
       style="fill:#ffffff;fill-opacity:1;fill-rule:nonzero;stroke:none"
       id="path19369"
       inkscape:connector-curvature="0" />
    <path
       d="m 348.52439,864.46244 c -26.75526,0 -44.20435,-8.37562 -57.00027,-16.01233 l 17.83667,-27.34377 c 11.63275,6.40491 20.16351,13.54865 40.71463,13.54865 6.59175,0 12.7959,-1.72354 16.6735,-7.88283 5.04076,-9.11455 -1.16402,-13.7951 -15.89812,-22.17065 l -7.36735,-4.68057 c -21.71432,-15.02673 -31.40826,-29.06811 -20.93889,-53.94872 6.59192,-15.7658 23.65328,-27.83655 52.34731,-27.83655 19.77547,0 38.38778,8.62202 49.24512,16.99756 L 403.1981,759.27459 C 392.72856,750.89904 384.19802,746.465 374.11628,746.465 c -8.14297,0 -13.95933,2.95595 -15.89812,7.14393 -4.26517,7.88281 1.164,13.05587 12.40833,20.19985 l 8.91835,5.66583 c 26.36745,16.50484 32.57162,34.2415 25.97964,50.50005 -11.24494,28.3291 -33.7348,34.48778 -57.00009,34.48778"
       style="fill:#ffffff;fill-opacity:1;fill-rule:nonzero;stroke:none"
       id="path19371"
       inkscape:connector-curvature="0" />
    <path
       d="m 130.67539,988.70027 c 97.12739,-41.79241 233.72512,-79.40535 414.43636,-41.79241 l 1.93399,-45.72535 C 356.2734,880.28635 219.28888,941.00785 130.67456,984.02936 l 0,4.67091"
       style="fill:#fab10b;fill-opacity:1;fill-rule:nonzero;stroke:none"
       id="path19373"
       inkscape:connector-curvature="0" />
  </g>
</svg>
